<?xml version="1.0" encoding="UTF-8"?>
<svg version="1.1" xmlns="http://www.w3.org/2000/svg" width="1072" height="941">
<path d="M0 0 C1.08667969 0.84111328 1.08667969 0.84111328 2.1953125 1.69921875 C22.08975778 17.68726486 34.07566273 44.75827376 37.0378418 69.52441406 C40.54265234 103.50705714 32.58353913 134.35407768 11 161 C10.57154785 161.52924072 10.1430957 162.05848145 9.70166016 162.60375977 C-4.58461618 180.03625764 -26.33549917 191.00906028 -48 196 C-48.80590576 196.18618896 -49.61181152 196.37237793 -50.44213867 196.56420898 C-58.19192772 198.16896689 -65.79162763 198.34740439 -73.6875 198.3125 C-74.3501889 198.31034485 -75.01287781 198.3081897 -75.69564819 198.30596924 C-106.75582686 198.14391695 -133.19934287 186.95996703 -155.6875 165.75 C-180.02251427 140.19597759 -186.87293799 109.70452666 -186.13623047 75.35839844 C-185.00825351 47.55113842 -171.61467766 21.50098304 -151.7421875 2.40234375 C-109.14823945 -34.91286715 -43.47556977 -36.30992877 0 0 Z M-112 47 C-122.38268281 60.88972233 -125.80019606 78.91244324 -123.46484375 95.890625 C-120.75522992 112.48480875 -114.77140687 124.77577368 -101 135 C-98.08914797 136.69715767 -95.19205863 137.93223391 -92 139 C-91.3503125 139.22429687 -90.700625 139.44859375 -90.03125 139.6796875 C-77.94262577 143.07380123 -62.49286856 142.20415115 -51.25390625 136.640625 C-48.74728638 135.19550091 -46.37195464 133.65524892 -44 132 C-42.96875 131.29875 -41.9375 130.5975 -40.875 129.875 C-31.40798607 121.45688818 -25.62227451 107.96487777 -24.83886719 95.41967773 C-24.54778418 76.4535891 -25.11985909 58.47440428 -38.95703125 43.8125 C-50.30028936 33.74888286 -62.65233628 30.63131727 -77.5234375 30.78515625 C-91.42539591 31.64426604 -102.5304023 36.81571568 -112 47 Z " fill="#FFFFFF" transform="translate(608,282)"/>
<path d="M0 0 C15.73885508 13.45648335 21.46662014 30.65412916 23.1484375 50.8359375 C1.0384375 50.8359375 -21.0715625 50.8359375 -43.8515625 50.8359375 C-44.8415625 47.2059375 -45.8315625 43.5759375 -46.8515625 39.8359375 C-51.85256504 34.4575008 -56.42402332 31.87578756 -63.8515625 31.5234375 C-68.57848251 31.64997073 -72.02846727 33.32716904 -75.6640625 36.3359375 C-78.31321081 39.6822301 -78.19623656 43.49147354 -78.1171875 47.5625 C-77.60583676 51.93906076 -75.47279474 54.40055383 -72.25 57.25390625 C-61.49266295 65.24690769 -47.47616794 69.2987253 -34.9765625 73.7109375 C-27.32578516 76.4309884 -19.89221249 79.45086923 -12.5390625 82.8984375 C-11.69811035 83.28563965 -10.8571582 83.6728418 -9.99072266 84.07177734 C5.17036699 91.36863958 17.11567768 103.08563559 23.1484375 118.8359375 C28.12048365 135.78268957 25.79510107 154.01654833 17.9609375 169.6484375 C8.35352153 186.3436273 -7.62873595 197.57917508 -26.02880859 202.76489258 C-53.3122888 209.88841843 -85.66723137 207.78365378 -110.5 193.8359375 C-127.15797302 183.97800707 -137.08425883 170.51708251 -142.90625 152.18359375 C-144.14254673 146.49765054 -144.40528127 140.63759354 -144.8515625 134.8359375 C-123.0715625 134.8359375 -101.2915625 134.8359375 -78.8515625 134.8359375 C-77.8615625 138.7959375 -76.8715625 142.7559375 -75.8515625 146.8359375 C-73.25873165 150.94125302 -70.64575467 153.6693052 -66 155.36328125 C-58.84090946 156.93828117 -51.77844587 156.76839064 -45.40625 152.9609375 C-41.74073785 150.3085066 -40.99738993 148.47132846 -39.9765625 144.0234375 C-39.59155555 139.61633668 -40.59914308 136.68684812 -42.8515625 132.8359375 C-47.15687506 128.76767339 -51.32750703 126.41612872 -56.7890625 124.2109375 C-57.58683105 123.88029297 -58.38459961 123.54964844 -59.20654297 123.20898438 C-66.52742068 120.23882297 -73.97825691 117.64638717 -81.43621826 115.04733276 C-114.26188247 103.60219443 -114.26188247 103.60219443 -125.8515625 92.8359375 C-127.01751953 91.84013672 -127.01751953 91.84013672 -128.20703125 90.82421875 C-139.53004641 80.56332896 -143.84024556 67.01657455 -144.7265625 52.18115234 C-145.44404271 34.52543184 -140.19212748 19.36215345 -129.08203125 5.65234375 C-98.63974736 -27.22532285 -33.89974905 -25.72665887 0 0 Z " fill="#FFFFFF" transform="translate(375.8515625,274.1640625)"/>
<path d="M0 0 C21.45 0 42.9 0 65 0 C65 70.29 65 140.58 65 213 C-5.29 213 -75.58 213 -148 213 C-148 191.55 -148 170.1 -148 148 C-99.16 148 -50.32 148 0 148 C0 99.16 0 50.32 0 0 Z " fill="#FFFFFF" transform="translate(984,700)"/>
<path d="M0 0 C70.29 0 140.58 0 213 0 C213 21.45 213 42.9 213 65 C164.16 65 115.32 65 65 65 C65 113.84 65 162.68 65 213 C43.88 213 22.76 213 1 213 C0.82616185 197.56255149 0.65698172 182.1251206 0.5 166.6875 C0.48812275 165.52010536 0.4762455 164.35271072 0.46400833 163.14994049 C-0.08451144 108.7639097 -0.07251964 54.38973118 0 0 Z " fill="#FFFFFF" transform="translate(23,28)"/>
<path d="M0 0 C70.62 0 141.24 0 214 0 C214 70.62 214 141.24 214 214 C192.66300841 213.39037167 171.3311713 212.76880221 150 212 C148.82186239 180.96753871 148.67471877 149.92627212 148.4375 118.875 C148.2209375 91.711875 148.2209375 91.711875 148 64 C99.16 64 50.32 64 0 64 C0 42.88 0 21.76 0 0 Z " fill="#FFFFFF" transform="translate(835,28)"/>
<path d="M0 0 C17.82 0 35.64 0 54 0 C58.50180868 10.12906953 58.50180868 10.12906953 59.94433594 13.76147461 C60.27333389 14.58767807 60.60233185 15.41388153 60.94129944 16.26512146 C61.28551437 17.13540482 61.62972931 18.00568817 61.984375 18.90234375 C62.54414284 20.31236412 62.54414284 20.31236412 63.11521912 21.75086975 C64.32921842 24.81213327 65.53989012 27.87469709 66.75 30.9375 C67.16408112 31.98381592 67.57816223 33.03013184 68.00479126 34.1081543 C76.53195752 55.66470602 84.81691935 77.31081407 93 99 C95.28403259 95.57395112 96.6225151 92.03408195 98.0625 88.20703125 C98.36617996 87.40865341 98.66985992 86.61027557 98.98274231 85.78770447 C99.99215881 83.13067727 100.99606247 80.47160171 102 77.8125 C102.70505759 75.95400113 103.41038465 74.09560447 104.1159668 72.23730469 C108.09257621 61.75129002 112.03250161 51.25169772 115.95703125 40.74609375 C116.56742752 39.11333244 116.56742752 39.11333244 117.19015503 37.44758606 C119.18046892 32.12285892 121.1669927 26.79677774 123.14648438 21.46801758 C123.87489637 19.51509806 124.60340705 17.56221535 125.33203125 15.609375 C125.65951859 14.72362289 125.98700592 13.83787079 126.32441711 12.92527771 C126.63348495 12.09883255 126.9425528 11.27238739 127.26098633 10.42089844 C127.65825676 9.35183258 127.65825676 9.35183258 128.06355286 8.26116943 C129.23070687 5.44292924 130.63583533 2.72832935 132 0 C149.82 0 167.64 0 186 0 C186 52.47 186 104.94 186 159 C171.15 159 156.3 159 141 159 C140.67 132.27 140.34 105.54 140 78 C133.02923792 98.2964812 133.02923792 98.2964812 126.06005859 118.59350586 C125.17290792 121.17563785 124.28570426 123.75775164 123.3984375 126.33984375 C123.06702255 127.30574181 123.06702255 127.30574181 122.72891235 128.29115295 C122.50553192 128.94212448 122.28215149 129.59309601 122.05200195 130.26379395 C121.85696579 130.83240898 121.66192963 131.40102402 121.46098328 131.98686981 C118.35442346 141.00949737 115.17639762 150.00020673 112 159 C99.46 159 86.92 159 74 159 C71.38209552 152.45523881 68.88909945 145.97856761 66.64453125 139.3125 C66.33859543 138.41168701 66.03265961 137.51087402 65.717453 136.58276367 C64.7465914 133.72269742 63.77934869 130.86142502 62.8125 128 C57.27304153 111.64363567 51.64904066 95.31945079 46 79 C45.67 105.4 45.34 131.8 45 159 C30.15 159 15.3 159 0 159 C0 106.53 0 54.06 0 0 Z " fill="#FFFFFF" transform="translate(233,549)"/>
<path d="M0 0 C21.33593734 0 42.67072702 0.46676818 64 1 C64 49.84 64 98.68 64 149 C113.17 149 162.34 149 213 149 C213 170.12 213 191.24 213 213 C142.71 213 72.42 213 0 213 C0 142.71 0 72.42 0 0 Z " fill="#FFFFFF" transform="translate(24,700)"/>
<path d="M0 0 C23.43 0 46.86 0 71 0 C78 15.3125 78 15.3125 81.373703 22.69267273 C84.36692803 29.2404895 87.3603222 35.78822882 90.35421753 42.33573914 C91.78804455 45.471469 93.2217839 48.60723894 94.65551758 51.74301147 C95.33581248 53.23084474 96.01615002 54.71865852 96.6965332 56.20645142 C100.47396902 64.46660823 104.24666166 72.72885581 108 81 C112.58239844 71.99973072 116.93532549 62.92856136 121.0836792 53.72119141 C122.02796071 51.62544373 122.97573882 49.53130641 123.92431641 47.4375 C125.60499222 43.72650681 127.28291828 40.01427787 128.96008301 36.30169678 C131.76035795 30.10371766 134.56408377 23.90731107 137.37255859 17.71304321 C138.36354663 15.52528507 139.35175575 13.33628593 140.33984375 11.1472168 C140.94257627 9.81683469 141.54543395 8.48650928 142.1484375 7.15625 C142.67614746 5.98900391 143.20385742 4.82175781 143.74755859 3.61914062 C145 1 145 1 146 0 C148.14743549 -0.09425595 150.29801026 -0.11742648 152.44750977 -0.11352539 C153.12065216 -0.11367142 153.79379456 -0.11381744 154.48733521 -0.1139679 C156.72205784 -0.11326878 158.9566981 -0.10547652 161.19140625 -0.09765625 C162.73697362 -0.09579206 164.28254157 -0.09436816 165.82810974 -0.09336853 C169.90357077 -0.0895434 173.97899637 -0.07971317 178.05444336 -0.06866455 C182.21011882 -0.05845032 186.36579999 -0.05387089 190.52148438 -0.04882812 C198.68100587 -0.03809089 206.84049853 -0.02101454 215 0 C209.54556233 11.65854488 203.94094234 23.20708067 198 34.625 C197.26739557 36.03920919 196.53514585 37.45360218 195.80322266 38.86816406 C194.29104405 41.7900798 192.77738697 44.71122221 191.26269531 47.63183594 C187.9751931 53.97416246 184.70876866 60.32733432 181.44046021 66.67956543 C177.66166531 74.02263423 173.88056827 81.364538 170.08740234 88.70019531 C169.77956818 89.29558105 169.47173401 89.8909668 169.15457153 90.50439453 C168.23430684 92.28165021 167.31100698 94.05733318 166.38769531 95.83300781 C165.16110618 98.21333888 163.95215913 100.59575562 162.76464844 102.99511719 C159.92318338 108.6870052 157.01268157 114.11981053 153.36323547 119.34080505 C132.86684611 148.86894033 136.9729698 183.61386613 138 218 C117.54 218 97.08 218 76 218 C76.12503906 213.25753906 76.25007812 208.51507813 76.37890625 203.62890625 C78.09421127 158.05262858 78.09421127 158.05262858 60.28369141 117.31445312 C56.75368366 112.34250726 54.15524399 106.88109485 51.46002197 101.42803955 C49.97034818 98.43542116 48.42129287 95.47347142 46.87890625 92.5078125 C42.56935806 84.18041654 38.28597902 75.83954126 34 67.5 C28.34335118 56.49481739 22.68148109 45.49238696 17 34.5 C16.69287079 33.90536957 16.38574158 33.31073914 16.06930542 32.6980896 C13.0226824 26.80100338 9.96257426 20.91212238 6.84765625 15.05078125 C6.37263672 14.15617187 5.89761719 13.2615625 5.40820312 12.33984375 C4.53975678 10.70882842 3.66762512 9.07976751 2.79101562 7.453125 C0 2.21816305 0 2.21816305 0 0 Z " fill="#FFFFFF" transform="translate(656,260)"/>
<path d="M0 0 C14.85 0 29.7 0 45 0 C58.80147059 20.70220588 58.80147059 20.70220588 64.4375 29.375 C65.37916016 30.82132813 65.37916016 30.82132813 66.33984375 32.296875 C68.22770388 35.19717625 70.1141187 38.09841174 72 41 C72.5583252 41.85883789 73.11665039 42.71767578 73.69189453 43.60253906 C75.81492995 46.86845288 77.93791987 50.13439485 80.05932617 53.40136719 C83.06906212 58.03516167 86.08599284 62.66415804 89.109375 67.2890625 C89.79837891 68.34351563 90.48738281 69.39796875 91.19726562 70.484375 C92.54401535 72.54486363 93.89164212 74.60477934 95.24023438 76.6640625 C95.84673828 77.5921875 96.45324219 78.5203125 97.078125 79.4765625 C97.61856445 80.30236816 98.15900391 81.12817383 98.71582031 81.97900391 C100 84 100 84 101 86 C101.33 57.62 101.66 29.24 102 0 C116.85 0 131.7 0 147 0 C147 52.47 147 104.94 147 159 C102 159 102 159 91.61328125 150.15625 C89.27875319 146.25684809 87.27282924 142.56042299 85.3125 138.5 C84.22067331 136.55496528 83.11321968 134.61861916 81.99023438 132.69140625 C79.82346113 128.91937638 77.7497386 125.11831375 75.75244141 121.25390625 C67.30800296 104.96208509 56.28798762 90.12939355 46 75 C45.67 102.72 45.34 130.44 45 159 C30.15 159 15.3 159 0 159 C0 106.53 0 54.06 0 0 Z " fill="#FFFFFF" transform="translate(566,549)"/>
<path d="M0 0 C14.85 0 29.7 0 45 0 C45.02578125 7.18652344 45.0515625 14.37304688 45.078125 21.77734375 C45.10330138 26.33922804 45.12964049 30.90104655 45.16015625 35.46289062 C45.20844621 42.69832583 45.25250799 49.93360872 45.27099609 57.16918945 C45.28617717 63.00489281 45.32064931 68.84019682 45.36830902 74.67572212 C45.38310771 76.89832647 45.39104014 79.12098783 45.39188385 81.34364128 C45.39425973 84.46511931 45.42139064 87.58549932 45.45410156 90.70678711 C45.4490712 91.61885422 45.44404083 92.53092133 45.43885803 93.47062683 C45.54152841 99.83329168 47.16803619 104.35710435 50 110 C50.33 110.99 50.66 111.98 51 113 C53.29534258 114.13545562 53.29534258 114.13545562 56 115 C56.74121094 115.34289062 57.48242188 115.68578125 58.24609375 116.0390625 C64.69368877 118.28886161 73.06867061 117.96938391 79.5625 115.875 C85.45497926 112.6609204 88.13044964 108.52604373 90.38053322 102.28559875 C91.4904801 98.19031344 91.43905478 94.13186992 91.43237305 89.91210938 C91.44766052 88.44732147 91.44766052 88.44732147 91.46325684 86.95294189 C91.49326625 83.74981865 91.50263445 80.54699506 91.51171875 77.34375 C91.52857434 75.11314916 91.54672577 72.88255778 91.56611633 70.65197754 C91.6135266 64.7995092 91.64339412 58.94707918 91.66955566 53.09448242 C91.70466069 46.06249271 91.76164794 39.0306501 91.81494904 31.9987793 C91.89335765 21.33253841 91.94404338 10.66648871 92 0 C106.85 0 121.7 0 137 0 C137.16043524 25.56268115 137.16043524 25.56268115 137.1953125 36.54296875 C137.21913136 44.00613931 137.24716746 51.46911171 137.30175781 58.93212891 C137.34553836 64.95572569 137.36920465 70.97910966 137.37950897 77.00285339 C137.3868429 79.28951868 137.40116257 81.57617365 137.42292023 83.86274719 C137.62361299 105.84849489 135.17810561 125.05667888 119.46386719 141.81762695 C105.58129931 155.73520467 86.38404098 161.03381806 67.1875 161.3125 C48.30406495 161.22147356 31.60529505 155.67687145 17.55859375 142.75390625 C0.47452974 125.14951542 -0.61317123 102.69100175 -0.390625 79.58984375 C-0.38314642 77.28244014 -0.37746116 74.97503009 -0.37347412 72.6676178 C-0.35834503 66.65231174 -0.31917551 60.63740416 -0.2746582 54.62225342 C-0.22615406 47.37412498 -0.20811082 40.12586184 -0.18484497 32.87761688 C-0.1463149 21.91813579 -0.06957202 10.95952561 0 0 Z " fill="#FFFFFF" transform="translate(737,549)"/>
<path d="M0 0 C33.66 0 67.32 0 102 0 C102 11.88 102 23.76 102 36 C83.19 36 64.38 36 45 36 C45 44.25 45 52.5 45 61 C61.5 61 78 61 95 61 C95 72.55 95 84.1 95 96 C78.5 96 62 96 45 96 C45 104.91 45 113.82 45 123 C63.81 123 82.62 123 102 123 C102 134.88 102 146.76 102 159 C68.34 159 34.68 159 0 159 C0 106.53 0 54.06 0 0 Z " fill="#FFFFFF" transform="translate(443,549)"/>
</svg>
